<svg width="375" height="674" viewBox="0 0 375 674" fill="none" xmlns="http://www.w3.org/2000/svg">
<path fill-rule="evenodd" clip-rule="evenodd" d="M14.4766 443.141C55.3962 451.156 96.9053 437.49 137.144 410.056C177.382 382.623 216.401 341.39 252.373 294.164C324.319 199.711 384.151 81.1921 417.247 0.851839L416.323 0.470949C383.248 80.7596 323.455 199.195 251.577 293.558C215.638 340.741 176.695 381.881 136.58 409.23C96.4656 436.579 55.2294 450.104 14.6688 442.159C-67.1035 426.143 -143.059 480.763 -204.707 555.286C-266.381 629.84 -313.879 724.478 -338.752 788.9L-337.819 789.26C-312.972 724.906 -265.522 630.37 -203.937 555.923C-142.326 481.446 -66.7117 427.239 14.4766 443.141ZM453.587 669.935C493.307 677.73 534.228 663.957 574.256 636.495C614.286 609.031 653.48 567.839 689.778 520.682C762.375 426.366 823.461 308.093 856.549 227.745L855.624 227.364C822.56 307.653 761.516 425.844 688.985 520.072C652.72 567.187 613.6 608.289 573.69 635.67C533.778 663.053 493.132 676.677 453.78 668.954C371.91 652.887 295.903 707.479 234.228 781.99C172.529 856.53 125.032 951.17 100.169 1015.6L101.102 1015.96C125.939 951.597 173.388 857.061 234.999 782.627C296.634 708.163 372.301 653.983 453.587 669.935ZM158.198 420.964C117.905 448.365 76.3386 461.992 35.3655 453.93C-46.0501 437.911 -121.785 492.057 -183.454 566.503C-245.097 640.92 -292.544 735.457 -317.37 799.822L-318.303 799.462C-293.451 735.029 -245.956 640.389 -184.224 565.865C-122.516 491.371 -46.4403 436.815 35.5586 452.949C76.1731 460.94 117.466 447.454 157.636 420.137C197.805 392.82 236.8 351.704 272.783 304.539C344.749 210.212 404.599 91.7869 437.652 11.4875L438.577 11.8682C405.502 92.2196 345.613 210.728 273.579 305.146C237.562 352.353 198.491 393.562 158.198 420.964ZM56.2554 464.719C97.0611 472.713 138.514 459.037 178.733 431.601C218.952 404.165 257.987 362.936 293.99 315.716C365.999 221.276 425.95 102.781 459.045 22.44L458.121 22.0591C425.047 102.348 365.135 220.76 293.195 315.11C257.225 362.286 218.265 403.423 178.17 430.775C138.074 458.127 96.8936 471.661 56.4477 463.738C-25.3344 447.716 -101.295 502.333 -162.946 576.855C-224.622 651.408 -272.12 746.046 -296.992 810.469L-296.059 810.829C-271.213 746.474 -223.763 651.938 -162.175 577.493C-100.562 503.017 -24.9427 448.812 56.2554 464.719ZM199.787 442.508C159.513 469.912 118.003 483.549 77.1444 475.508C-4.28112 459.484 -80.0212 513.627 -141.692 588.072C-203.339 662.487 -250.785 757.024 -275.61 821.39L-276.543 821.03C-251.692 756.597 -204.197 661.956 -142.462 587.434C-80.7522 512.942 -4.67122 458.388 77.3375 474.527C117.837 482.497 159.074 469.001 199.224 441.681C239.374 414.361 278.386 373.249 314.401 326.091C386.429 231.776 446.398 113.375 479.45 33.0754L480.375 33.456C447.301 113.808 387.292 232.293 315.195 326.698C279.148 373.899 240.06 415.103 199.787 442.508ZM98.0339 486.297C138.726 494.27 180.123 480.584 220.322 453.146C260.521 425.706 299.573 384.481 335.607 337.269C407.677 242.841 467.748 124.37 500.843 44.0276L499.918 43.6468C466.846 123.936 406.814 242.324 334.812 336.662C298.811 383.832 259.834 424.965 219.758 452.32C179.682 479.675 138.557 493.218 98.2262 485.316C16.4344 469.289 -59.5311 523.903 -121.185 598.424C-182.864 672.975 -230.362 767.614 -255.232 832.037L-254.299 832.397C-229.455 768.041 -182.005 673.506 -120.414 599.061C-58.7988 524.587 16.826 470.385 98.0339 486.297ZM241.375 464.052C201.122 491.459 159.667 505.106 118.923 497.086C37.4878 481.057 -38.2575 535.197 -99.9311 609.641C-161.58 684.055 -209.026 778.592 -233.85 842.959L-234.783 842.599C-209.933 778.165 -162.439 683.524 -100.701 609.003C-38.9885 534.512 37.0977 479.961 119.116 496.105C159.5 504.054 200.681 490.549 240.812 463.225C280.942 435.902 319.971 394.794 356.017 347.642C428.108 253.341 488.196 134.963 521.248 54.6633L522.172 55.0439C489.099 135.397 428.971 253.859 356.812 348.25C320.733 395.444 281.629 436.645 241.375 464.052ZM139.812 507.875C180.39 515.827 221.732 502.131 261.91 474.69C302.09 447.248 341.158 406.027 377.224 358.821C449.356 264.407 509.546 145.958 542.64 65.6153L541.715 65.2345C508.644 145.523 448.493 263.889 376.429 358.214C340.396 405.377 301.403 446.506 261.346 473.864C221.289 501.222 180.221 514.775 140.005 506.894C58.2032 490.862 -17.7674 545.474 -79.4236 619.993C-141.105 694.543 -188.603 789.182 -213.473 853.605L-212.54 853.965C-187.696 789.609 -140.246 695.074 -78.6531 620.631C-17.0351 546.157 58.5948 491.958 139.812 507.875ZM282.963 485.596C242.729 513.005 201.331 526.663 160.701 518.664C79.2563 502.63 3.50596 556.767 -58.1701 631.21C-119.821 705.623 -167.268 800.16 -192.09 864.527L-193.023 864.167C-168.175 799.733 -120.68 705.092 -58.9402 630.572C2.77506 556.082 78.8664 501.534 160.894 517.683C201.164 525.61 242.288 512.096 282.4 484.769C322.51 457.443 361.556 416.338 397.634 369.193C469.786 274.905 529.994 156.55 563.044 76.2507L563.969 76.6313C530.897 156.985 470.649 275.423 398.428 369.801C362.318 416.989 323.197 458.186 282.963 485.596ZM181.59 529.453C222.054 537.384 263.339 523.678 303.498 496.234C343.658 468.789 382.743 427.572 418.84 380.372C491.034 285.971 551.344 167.546 584.437 87.2026L583.512 86.8217C550.441 167.111 490.172 285.453 418.045 379.765C381.982 426.922 342.971 468.047 302.934 495.408C262.896 522.77 221.884 536.332 181.783 528.471C99.9718 512.435 23.9961 567.044 -37.6626 641.562C-99.3463 716.111 -146.844 810.75 -171.713 875.173L-170.78 875.533C-145.937 811.177 -98.4875 716.641 -36.8921 642.199C24.7283 567.727 100.363 513.531 181.59 529.453ZM324.737 507.235C284.588 534.681 243.33 548.392 202.924 540.471C121.692 524.546 46.0545 578.742 -15.5671 653.214C-77.1637 727.655 -124.613 822.19 -149.456 886.547L-150.389 886.187C-125.52 821.763 -78.0225 727.124 -16.3375 652.576C45.3223 578.058 121.301 523.451 203.116 539.49C243.16 547.34 284.144 533.773 324.172 506.41C364.2 479.047 403.218 437.923 439.298 390.77C511.455 296.464 571.785 178.134 604.855 97.8448L605.779 98.2257C572.687 178.57 512.318 296.983 440.092 391.377C403.98 438.574 364.887 479.789 324.737 507.235ZM223.368 551.03C263.717 558.941 304.947 545.225 345.086 517.778C385.226 490.33 424.328 449.117 460.455 401.924C532.712 307.536 593.141 189.134 626.233 108.79L625.308 108.409C592.239 188.698 531.85 307.017 459.661 401.316C423.567 448.466 384.539 489.588 344.522 516.952C304.503 544.317 263.547 557.889 223.561 550.049C141.74 534.008 65.7598 588.614 4.09862 663.131C-57.5875 737.678 -105.085 832.318 -129.953 896.742L-129.02 897.102C-104.178 832.745 -56.7287 738.209 4.86905 663.769C66.4919 589.298 142.132 535.104 223.368 551.03ZM366.324 528.779C326.195 556.227 284.993 569.949 244.701 562.049C163.46 546.119 87.8178 600.312 26.1938 674.783C-35.4052 749.223 -82.8547 843.758 -107.696 908.115L-108.629 907.755C-83.7616 843.331 -36.264 748.692 25.4234 674.145C87.0857 599.629 163.069 545.024 244.894 561.067C284.823 568.896 325.75 555.32 365.759 527.954C405.767 500.588 444.803 459.468 480.913 412.321C553.133 318.028 613.581 199.721 646.65 119.432L647.575 119.813C614.483 200.158 553.995 318.548 481.707 412.929C445.564 460.119 406.454 501.33 366.324 528.779ZM265.146 572.608C305.381 580.498 346.555 566.771 386.674 539.321C426.794 511.871 465.912 470.661 502.071 423.475C574.389 329.1 634.937 210.722 668.029 130.377L667.104 129.996C634.036 210.285 573.528 328.58 501.277 422.867C465.151 470.011 426.107 511.129 386.109 538.496C346.11 565.864 305.21 579.445 265.339 571.627C183.509 555.58 107.523 610.184 45.8598 684.7C-15.8287 759.246 -63.3263 853.885 -88.1935 918.31L-87.2606 918.67C-62.4194 854.313 -14.97 759.777 46.6302 685.338C108.255 610.868 183.9 556.676 265.146 572.608ZM407.911 550.322C367.803 577.773 326.657 591.505 286.479 583.626C205.229 567.692 129.581 621.883 67.955 696.351C6.35358 770.79 -41.0957 865.326 -65.9365 929.684L-66.8694 929.323C-42.0027 864.899 5.49478 770.259 67.1846 695.714C128.849 621.199 204.837 566.596 286.672 582.645C326.485 590.453 367.357 576.867 407.347 549.497C447.335 522.129 486.387 481.012 522.529 433.872C594.81 339.592 655.378 221.308 688.446 141.019L689.371 141.399C656.28 221.745 595.672 340.112 523.322 434.48C487.149 481.663 448.022 522.87 407.911 550.322ZM306.924 594.186C347.044 602.054 388.162 588.317 428.26 560.865C468.361 533.411 507.496 492.206 543.685 445.026C616.066 350.664 676.733 232.309 709.824 151.963L708.899 151.583C675.832 231.872 615.205 350.144 542.892 444.417C506.735 491.555 467.674 532.669 427.695 560.04C387.716 587.411 346.872 601.002 307.116 593.204C225.277 577.153 149.287 631.754 87.6207 706.269C25.9297 780.814 -21.5677 875.453 -46.434 939.878L-45.5011 940.238C-20.6607 875.881 26.7885 781.345 88.3911 706.907C150.019 632.438 225.668 578.249 306.924 594.186ZM449.498 571.866C409.409 599.32 368.319 613.062 328.256 605.204C246.997 589.265 171.345 643.453 109.716 717.921C48.1121 792.358 0.662875 886.894 -24.177 951.252L-25.1099 950.892C-0.244073 886.467 47.2533 791.827 108.945 717.283C170.613 642.769 246.606 588.169 328.449 604.222C368.147 612.009 408.963 598.414 448.933 571.041C488.902 543.669 527.971 502.557 564.144 455.422C636.487 361.155 697.174 242.895 730.241 162.605L731.166 162.986C698.075 243.332 637.348 361.676 564.937 456.031C528.732 503.208 489.588 544.411 449.498 571.866ZM348.701 615.763C388.707 623.61 429.768 609.863 469.847 582.408C509.927 554.951 549.079 513.75 585.3 466.577C657.742 372.228 718.529 253.897 751.619 173.55L750.694 173.169C717.628 253.458 656.881 371.707 584.507 465.968C548.318 513.099 509.241 554.21 469.282 581.583C429.321 608.957 388.534 622.558 348.893 614.782C267.046 598.726 191.05 653.324 129.382 727.838C67.6885 802.382 20.1912 897.021 -4.67421 961.446L-3.74129 961.806C21.0982 897.448 68.5473 802.912 130.152 728.475C191.782 654.008 267.437 599.822 348.701 615.763ZM491.084 593.409C451.016 620.866 409.982 634.618 370.034 626.781C288.765 610.837 213.108 665.023 151.477 739.489C89.8709 813.926 42.4218 908.462 17.5828 972.82L16.6498 972.46C41.5149 908.034 89.0121 813.395 150.707 738.852C212.376 664.339 288.374 609.742 370.226 625.8C409.809 633.565 450.568 619.96 490.519 592.584C530.468 565.209 569.554 524.1 605.758 476.972C678.164 382.718 738.97 264.481 772.036 184.192L772.961 184.572C739.871 264.92 679.025 383.239 606.551 477.582C570.315 524.752 531.155 565.951 491.084 593.409ZM390.478 637.34C430.369 645.167 471.375 631.409 511.433 603.951C551.494 576.492 590.662 535.294 626.914 488.127C699.418 393.792 760.324 275.484 793.414 195.136L792.489 194.755C759.424 275.045 698.558 393.27 626.121 487.518C589.902 534.643 550.807 575.75 510.868 603.126C470.927 630.504 430.196 644.114 390.671 636.359C308.814 620.299 232.814 674.895 171.143 749.407C109.447 823.949 61.9501 918.589 37.0855 983.015L38.0185 983.375C62.8571 919.016 110.306 824.48 171.913 750.045C233.546 675.579 309.205 621.394 390.478 637.34ZM532.67 614.952C492.622 642.412 451.645 656.174 411.811 648.358C330.533 632.41 254.871 686.593 193.238 761.059C131.63 835.494 84.1807 930.03 59.3425 994.388L58.4096 994.028C83.2738 929.602 130.771 834.963 192.468 760.421C254.139 685.909 330.142 631.314 412.003 647.377C451.471 655.121 492.174 641.506 532.105 614.127C572.034 586.749 611.137 545.644 647.372 498.523C719.84 404.281 780.765 286.068 813.83 205.778L814.755 206.159C781.666 286.507 720.7 404.803 648.165 499.132C611.898 546.296 572.721 587.491 532.67 614.952ZM432.255 658.917C472.031 666.723 512.981 652.955 553.019 625.494C593.059 598.031 632.245 556.838 668.527 509.678C741.094 415.355 802.119 297.07 835.208 216.722L834.283 216.341C801.219 296.631 740.234 414.833 667.735 509.068C631.484 556.186 592.373 597.289 552.453 624.669C512.532 652.05 471.858 665.67 432.447 657.936C350.582 641.871 274.577 696.465 212.904 770.976C151.206 845.517 103.709 940.157 78.8451 1004.58L79.778 1004.94C104.616 940.584 152.065 846.048 213.674 771.613C275.309 697.149 350.973 642.967 432.255 658.917Z" fill="url(#paint0_linear_1_13713)" fill-opacity="0.2"/>
<defs>
<linearGradient id="paint0_linear_1_13713" x1="356.843" y1="-10.7523" x2="160.981" y2="1027.26" gradientUnits="userSpaceOnUse">
<stop stop-color="#EEAC1A"/>
<stop offset="1" stop-color="#00805F"/>
</linearGradient>
</defs>
</svg>
